<mxfile host="app.diagrams.net" modified="2024-02-21T07:39:05.887Z" agent="Mozilla/5.0 (Windows NT 10.0; Win64; x64) AppleWebKit/537.36 (KHTML, like Gecko) Chrome/105.0.0.0 Safari/537.36" version="23.1.5" etag="3YL2pCQALQQABqUFnkHC" type="github">
  <diagram name="第 1 页" id="DOYUrDpEB9ucJ2MZT26n">
    <mxGraphModel>
      <root>
        <mxCell id="0" />
        <mxCell id="1" parent="0" />
      </root>
    </mxGraphModel>
  </diagram>
</mxfile>
